<svg xmlns="http://www.w3.org/2000/svg" width="32" height="32" fill="none" viewBox="0 0 32 32">
  <path fill="#0164E9" d="M0 0h26a6 6 0 016 6v26H6a6 6 0 01-6-6V0z"/>
  <path fill="#fff" fill-rule="evenodd" d="M5.902 10.4H4v8.967c0 1.05.852 1.902 1.902 1.902V10.4zm15.49 7.065c0-2.294 1.636-3.94 3.804-3.94 2.167 0 3.804 1.646 3.804 3.94 0 2.28-1.637 3.94-3.804 3.94-2.168 0-3.805-1.66-3.805-3.94zm1.902 0c0 1.34.912 2.038 1.902 2.038.989 0 1.902-.684 1.902-2.038 0-1.354-.913-2.038-1.902-2.038-.99 0-1.902.684-1.902 2.038zM8.89 13.661H6.99v5.027a2.717 2.717 0 004.891 1.63v.952h1.902v-7.61H11.88v4.349a1.495 1.495 0 11-2.989 0V13.66zm7.88-1.359c0-1.05-.851-1.902-1.902-1.902v10.87h1.902v-2.188l.703-.738 2.15 2.925h2.446l-3.216-4.374 3.08-3.234H19.49l-2.718 2.964v-4.323z" clip-rule="evenodd"/>
</svg>
